<svg width="123" height="86" viewBox="0 0 123 86" fill="none" xmlns="http://www.w3.org/2000/svg">
<g clip-path="url(#clip0_1_1116)">
<path d="M32.0961 34.4615C33.0921 34.4615 33.9068 33.9178 33.9098 33.2458L33.9395 29.5C21.6333 29.5 12.8503 29.5 1.3647 29.5V34.4465L1.38551 34.4704L1.3647 37.1946L1.27253 48.7545L1.25171 51.4996C1.23982 53.0887 2.84537 54.176 4.84339 54.176H30.1338C32.1288 54.176 33.7522 53.0887 33.7671 51.7415L33.8474 41.8395H24.7968C23.8008 41.8395 22.9861 42.3831 22.9831 43.0522L22.9356 49.098H12.1784L12.2914 34.4585H32.0961V34.4615Z" fill="#006AB2"/>
<path d="M72.4073 29.4971C71.001 29.4971 69.7195 30.0497 69.1219 30.9129L57.9068 47.043L46.2368 29.5001H36.9901V34.4556L37.0019 34.4705L36.9901 35.8296L36.9603 39.5544L36.8444 54.176H43.8999C44.8959 54.176 45.7076 53.6294 45.7135 52.9573L45.7789 44.8326L51.996 54.173H63.6184L69.9811 45.0178L69.9098 54.173H76.8939C77.8899 54.173 78.7016 53.6264 78.7076 52.9543L78.8771 31.4954L78.8919 29.503H72.4073V29.4971Z" fill="#006AB2"/>
<path d="M81.2141 29.5L81.3151 34.333H92.0694L91.9118 54.176H101.016C102.009 54.176 102.824 53.6293 102.83 52.9573L102.978 34.336H113.726V29.503H81.2141V29.5Z" fill="#006AB2"/>
<path d="M7.32013 65.3237C6.67791 65.9599 5.84837 66.2556 4.94451 66.2556C2.62241 66.2556 1.64124 64.6486 1.63232 63.0177C1.6234 61.3748 2.68485 59.708 4.94451 59.708C5.79188 59.708 6.59763 60.0306 7.23985 60.6669L6.45492 61.4285C6.04461 61.0253 5.49159 60.8371 4.94451 60.8371C3.4341 60.8371 2.78296 61.9662 2.79188 63.0177C2.8008 64.0571 3.39842 65.1444 4.94451 65.1444C5.48861 65.1444 6.10407 64.9204 6.51735 64.5082L7.32013 65.3237Z" fill="#006AB2"/>
<path d="M12.4906 66.1211V63.5821H9.41922V66.1211H8.24182V59.8423H9.41922V62.4888H12.4906V59.8423H13.6591V66.1211H12.4906Z" fill="#006AB2"/>
<path d="M19.5104 64.9294H16.2428L15.7076 66.1123H14.4321L17.2359 59.8335H18.5203L21.3241 66.1123H20.0397L19.5134 64.9294H19.5104ZM17.8751 61.1538L16.7156 63.8272H19.0377L17.8781 61.1538H17.8751Z" fill="#006AB2"/>
<path d="M26.3697 64.0572V59.8335H27.5471V66.1123H26.5927L23.2716 61.9334V66.1123H22.0942V59.8335H23.0486L26.3697 64.0572Z" fill="#006AB2"/>
<path d="M33.559 61.3687C33.1398 60.9655 32.5154 60.7415 31.9683 60.7415C30.6303 60.7415 29.8157 61.763 29.8157 63.0564C29.8157 64.087 30.4133 65.1563 31.9683 65.1563C32.4589 65.1563 32.887 65.0488 33.3806 64.6545V63.5433H31.781V62.4859H34.4599V65.1324C33.8444 65.8404 33.0684 66.2615 31.9683 66.2615C29.6194 66.2615 28.665 64.7083 28.665 63.0594C28.665 61.2911 29.7622 59.6602 31.9683 59.6602C32.8068 59.6602 33.6482 59.9828 34.2904 60.619L33.559 61.3717V61.3687Z" fill="#006AB2"/>
<path d="M40.3469 66.1123H35.667V59.8335H40.3469V60.9805H36.8384V62.4233H40.222V63.5255H36.8384V64.9443H40.3469V66.1093V66.1123Z" fill="#006AB2"/>
<path d="M48.3747 64.2841C48.3747 64.6515 48.5352 64.9652 48.9366 64.9652V66.1391C48.4728 66.1391 47.9554 66.0316 47.7592 65.3147C47.3489 65.9867 46.6353 66.1929 45.9723 66.1929C44.6076 66.1929 43.4985 65.7538 43.4896 64.2005C43.4896 63.6718 43.8732 63.0893 44.453 62.8922C43.891 62.7129 43.6145 62.1126 43.6145 61.6197C43.6234 60.2845 44.8811 59.7349 45.999 59.7349C47.117 59.7349 48.2765 60.156 48.2855 61.5122H47.1705C47.1705 60.9386 46.6086 60.7415 45.9753 60.7415C45.0565 60.7415 44.7533 61.2523 44.7622 61.6197C44.7622 62.2559 45.5471 62.4352 45.9663 62.4352H48.895V63.3671H48.3776V64.2811L48.3747 64.2841ZM44.6522 64.2124C44.6522 64.8756 45.3033 65.1354 45.9544 65.1354C46.3737 65.1354 47.2567 64.9114 47.2567 64.2752V63.3701H45.9009C45.0357 63.3701 44.6522 63.8361 44.6522 64.2124Z" fill="#006AB2"/>
<path d="M56.9643 66.1123H52.2844V59.8335H56.9643V60.9805H53.4559V62.4233H56.8394V63.5255H53.4559V64.9443H56.9643V66.1093V66.1123Z" fill="#006AB2"/>
<path d="M62.0367 59.8335H63.33V59.8873L61.2131 62.937L63.3925 66.0764V66.1123H62.0724L60.4728 63.7525L58.8732 66.1123H57.553V66.0764L59.7235 62.937L57.6155 59.8873V59.8335H58.9088L60.4698 62.1753L62.0307 59.8335H62.0367Z" fill="#006AB2"/>
<path d="M69.2884 65.3237C68.6462 65.9599 67.8137 66.2556 66.9128 66.2556C64.5907 66.2556 63.6096 64.6486 63.6006 63.0177C63.5917 61.3748 64.6532 59.708 66.9128 59.708C67.7602 59.708 68.566 60.0306 69.2082 60.6669L68.4232 61.4285C68.0129 61.0253 67.4599 60.8371 66.9128 60.8371C65.4054 60.8371 64.7513 61.9662 64.7602 63.0177C64.7691 64.0571 65.3667 65.1444 66.9128 65.1444C67.4569 65.1444 68.0724 64.9204 68.4857 64.5082L69.2884 65.3237Z" fill="#006AB2"/>
<path d="M74.4589 66.1211V63.5821H71.3875V66.1211H70.2101V59.8423H71.3875V62.4888H74.4589V59.8423H75.6274V66.1211H74.4589Z" fill="#006AB2"/>
<path d="M81.4787 64.9294H78.2111L77.6759 66.1123H76.4004L79.2042 59.8335H80.4886L83.2924 66.1123H82.0079L81.4817 64.9294H81.4787ZM79.8434 61.1538L78.6838 63.8272H81.0059L79.8464 61.1538H79.8434Z" fill="#006AB2"/>
<path d="M88.338 64.0572V59.8335H89.5154V66.1123H88.5609L85.2398 61.9334V66.1123H84.0624V59.8335H85.0168L88.338 64.0572Z" fill="#006AB2"/>
<path d="M95.5273 61.3687C95.108 60.9655 94.4837 60.7415 93.9396 60.7415C92.6016 60.7415 91.7869 61.763 91.7869 63.0564C91.7869 64.087 92.3846 65.1563 93.9396 65.1563C94.4302 65.1563 94.8583 65.0488 95.3519 64.6545V63.5433H93.7523V62.4859H96.4311V65.1324C95.8157 65.8404 95.0397 66.2615 93.9396 66.2615C91.5907 66.2615 90.6363 64.7083 90.6363 63.0594C90.6363 61.2911 91.7334 59.6602 93.9396 59.6602C94.778 59.6602 95.6194 59.9828 96.2617 60.619L95.5302 61.3717L95.5273 61.3687Z" fill="#006AB2"/>
<path d="M102.315 66.1123H97.6353V59.8335H102.315V60.9805H98.8068V62.4233H102.19V63.5255H98.8068V64.9443H102.315V66.1093V66.1123Z" fill="#006AB2"/>
<path d="M118.397 63.6091C118.296 65.6881 117.937 67.7939 117.259 69.8132C116.923 70.8228 116.503 71.8085 116.019 72.7524C115.897 72.9884 115.769 73.2214 115.638 73.4544L115.219 74.1295L114.797 74.8016C114.725 74.9121 114.657 75.0256 114.583 75.1331L114.342 75.4497C114.021 75.8679 113.7 76.2891 113.373 76.6983L112.302 77.8453L112.032 78.1291L111.743 78.389L111.167 78.9058L110.587 79.4195L109.974 79.8825L109.362 80.3395C109.157 80.4919 108.954 80.6472 108.737 80.7727L107.456 81.5702C107.028 81.8271 106.579 82.0392 106.142 82.2751L105.482 82.6157L104.807 82.9084C103.02 83.7298 101.173 84.2824 99.336 84.7604C98.4113 84.9635 97.4896 85.1935 96.5649 85.3249C96.1011 85.3996 95.6403 85.4862 95.1794 85.5489L93.7939 85.7102C90.0981 86.1135 86.4292 86.0657 82.8167 85.7491C75.5917 85.1039 68.5957 83.3983 61.8732 81.0654C55.1507 78.7235 48.7195 75.6917 42.5858 72.1969L43.2755 70.8736C49.5729 73.8666 56.0872 76.3578 62.7651 78.1411C69.4371 79.9154 76.2726 81.0355 83.0456 81.1311C86.4262 81.1759 89.7949 80.9608 93.0357 80.3575L94.2458 80.1275C94.6472 80.0438 95.0397 79.9363 95.4381 79.8407C96.2379 79.6675 97.002 79.4076 97.7751 79.1806C99.2884 78.6608 100.781 78.0933 102.131 77.3376L102.645 77.0687L103.133 76.764C103.454 76.5579 103.79 76.3727 104.096 76.1547L105.003 75.4886C105.161 75.384 105.294 75.2586 105.431 75.1361L105.847 74.7717L106.264 74.4103L106.638 74.016L107.016 73.6276L107.206 73.4335L107.373 73.2244L108.042 72.394L108.618 71.5098C110.123 69.1292 110.768 66.3572 110.682 63.4836L118.4 63.6091H118.397Z" fill="#FFC50B"/>
<path d="M106.053 67.7312L111.776 51.3921L123 64.5411L106.053 67.7312Z" fill="#FFC50B"/>
<path d="M4.70959 7.30633C6.29731 5.88151 8.06044 4.72552 9.88601 3.79356C11.7145 2.86459 13.6055 2.13874 15.5173 1.59809C17.4321 1.06639 19.3617 0.684051 21.2914 0.421191C21.773 0.361451 22.2577 0.313658 22.7393 0.259891L23.4618 0.185215L24.1843 0.137422C24.666 0.107552 25.1477 0.0687202 25.6293 0.0478109L27.0684 0.0089793C34.7482 -0.101541 42.2468 1.19782 49.4509 3.24992C56.6581 5.31397 63.5917 8.16062 70.1922 11.5987C76.7928 15.0308 83.0694 19.0633 88.882 23.6753L87.9901 24.8702C82.0376 20.6166 75.6749 16.9754 69.0565 13.9435C62.441 10.9117 55.558 8.4892 48.5292 6.85827C41.5124 5.23332 34.3023 4.385 27.2735 4.845L25.9593 4.94656C25.5223 4.9854 25.0912 5.04514 24.6571 5.09293L24.0059 5.1676L23.3607 5.26916C22.9326 5.34085 22.5015 5.40059 22.0763 5.47826C20.3756 5.79787 18.7106 6.22203 17.105 6.75373C13.9147 7.84698 10.9742 9.45999 8.76509 11.6525L4.71257 7.30633H4.70959Z" fill="#FFC50B"/>
<path d="M17.8424 11.766L1.16551 22.7882L0 2.76904L17.8424 11.766Z" fill="#FFC50B"/>
</g>
<defs>
<clipPath id="clip0_1_1116">
<rect width="123" height="86" fill="white"/>
</clipPath>
</defs>
</svg>
