<svg width="161" height="112" viewBox="0 0 161 112" fill="none" xmlns="http://www.w3.org/2000/svg">
<g clip-path="url(#clip0_10_161)">
<path d="M42.012 44.8803C43.3158 44.8803 44.3821 44.1723 44.386 43.297L44.4249 38.4188C28.3168 38.4188 16.8204 38.4188 1.78634 38.4188V44.8608L1.81358 44.892L1.78634 48.4397L1.6657 63.4944L1.63845 67.0694C1.62289 69.139 3.72446 70.555 6.33975 70.555H39.4434C42.0548 70.555 44.1798 69.139 44.1992 67.3845L44.3043 54.4888H32.4576C31.1539 54.4888 30.0875 55.1968 30.0836 56.0682L30.0214 63.9418H15.9408L16.0887 44.8764H42.012V44.8803Z" fill="white"/>
<path d="M94.7771 38.4148C92.9363 38.4148 91.2589 39.1345 90.4766 40.2587L75.7968 61.2653L60.5214 38.4187H48.4179V44.8724L48.4335 44.8918L48.4179 46.6618L48.379 51.5128L48.2272 70.5548H57.4625C58.7662 70.5548 59.8287 69.8429 59.8365 68.9677L59.9221 58.3866L68.0599 70.5509H83.2729L91.6014 58.6278L91.508 70.5509H100.65C101.954 70.5509 103.016 69.8391 103.024 68.9638L103.246 41.0173L103.265 38.4226H94.7771V38.4148Z" fill="white"/>
<path d="M106.305 38.4187L106.437 44.7129H120.514L120.307 70.5549H132.224C133.524 70.5549 134.59 69.843 134.598 68.9677L134.793 44.7168H148.861V38.4226H106.305V38.4187Z" fill="white"/>
<path d="M9.58163 85.0727C8.741 85.9013 7.65519 86.2864 6.47208 86.2864C3.43258 86.2864 2.14828 84.1935 2.13661 82.0695C2.12493 79.93 3.51431 77.7593 6.47208 77.7593C7.58124 77.7593 8.63592 78.1794 9.47655 79.008L8.44911 80C7.91204 79.4748 7.18817 79.2297 6.47208 79.2297C4.49504 79.2297 3.64274 80.7002 3.65441 82.0695C3.66609 83.4233 4.44834 84.8393 6.47208 84.8393C7.18428 84.8393 7.98988 84.5475 8.53084 84.0107L9.58163 85.0727Z" fill="white"/>
<path d="M16.3495 86.1113V82.8047H12.3292V86.1113H10.7881V77.9343H12.3292V81.381H16.3495V77.9343H17.879V86.1113H16.3495Z" fill="white"/>
<path d="M25.538 84.5591H21.2609L20.5604 86.0996H18.8908L22.5608 77.9226H24.242L27.912 86.0996H26.2307L25.5419 84.5591H25.538ZM23.3975 79.642L21.8797 83.1237H24.9192L23.4014 79.642H23.3975Z" fill="white"/>
<path d="M34.5164 83.4232V77.9226H36.0576V86.0996H34.8083L30.4611 80.6574V86.0996H28.92V77.9226H30.1693L34.5164 83.4232Z" fill="white"/>
<path d="M43.9268 79.9222C43.378 79.397 42.5608 79.1052 41.8486 79.1052C40.0972 79.1052 39.0309 80.4357 39.0309 82.1201C39.0309 83.4622 39.8131 84.8548 41.8486 84.8548C42.4907 84.8548 43.0511 84.7148 43.6933 84.2013V82.7542H41.5995V81.3771H45.106V84.8237C44.3004 85.7457 43.2846 86.2942 41.8447 86.2942C38.7701 86.2942 37.5209 84.2713 37.5209 82.124C37.5209 79.821 38.9569 77.697 41.8447 77.697C42.9422 77.697 44.0435 78.1172 44.8842 78.9457L43.9268 79.9261V79.9222Z" fill="white"/>
<path d="M52.8118 86.0996H46.6861V77.9226H52.8118V79.4164H48.2195V81.2953H52.6483V82.7308H48.2195V84.5786H52.8118V86.0957V86.0996Z" fill="white"/>
<path d="M63.3196 83.715C63.3196 84.1935 63.5298 84.602 64.0552 84.602V86.1308C63.4481 86.1308 62.7709 85.9907 62.514 85.0571C61.977 85.9324 61.0429 86.2008 60.1751 86.2008C58.3887 86.2008 56.9371 85.629 56.9254 83.6061C56.9254 82.9176 57.4275 82.159 58.1864 81.9022C57.4508 81.6688 57.0889 80.8869 57.0889 80.2451C57.1005 78.5062 58.7468 77.7904 60.2101 77.7904C61.6734 77.7904 63.1912 78.3389 63.2029 80.105H61.7435C61.7435 79.3581 61.0079 79.1014 60.179 79.1014C58.9764 79.1014 58.5794 79.7666 58.5911 80.2451C58.5911 81.0737 59.6185 81.3071 60.1673 81.3071H64.0007V82.5208H63.3235V83.7111L63.3196 83.715ZM58.4471 83.6217C58.4471 84.4853 59.2994 84.8237 60.1517 84.8237C60.7005 84.8237 61.8563 84.532 61.8563 83.7034V82.5247H60.0817C58.9492 82.5247 58.4471 83.1315 58.4471 83.6217Z" fill="white"/>
<path d="M74.5631 86.0996H68.4374V77.9226H74.5631V79.4164H69.9707V81.2953H74.3996V82.7308H69.9707V84.5786H74.5631V86.0957V86.0996Z" fill="white"/>
<path d="M81.2025 77.9226H82.8954V77.9926L80.1245 81.9644L82.9771 86.0529V86.0996H81.2492L79.1554 83.0264L77.0616 86.0996H75.3336V86.0529L78.1747 81.9644L75.4154 77.9926V77.9226H77.1083L79.1515 80.9724L81.1947 77.9226H81.2025Z" fill="white"/>
<path d="M90.6946 85.0727C89.854 85.9013 88.7643 86.2864 87.5851 86.2864C84.5456 86.2864 83.2613 84.1935 83.2496 82.0695C83.2379 79.93 84.6273 77.7593 87.5851 77.7593C88.6942 77.7593 89.7489 78.1794 90.5895 79.008L89.5621 80C89.025 79.4748 88.3011 79.2297 87.5851 79.2297C85.6119 79.2297 84.7557 80.7002 84.7674 82.0695C84.7791 83.4233 85.5613 84.8393 87.5851 84.8393C88.2973 84.8393 89.1029 84.5475 89.6438 84.0107L90.6946 85.0727Z" fill="white"/>
<path d="M97.4624 86.1113V82.8047H93.4422V86.1113H91.9011V77.9343H93.4422V81.381H97.4624V77.9343H98.9919V86.1113H97.4624Z" fill="white"/>
<path d="M106.651 84.5591H102.374L101.673 86.0996H100.004L103.674 77.9226H105.355L109.025 86.0996H107.344L106.655 84.5591H106.651ZM104.51 79.642L102.993 83.1237H106.032L104.514 79.642H104.51Z" fill="white"/>
<path d="M115.629 83.4232V77.9226H117.171V86.0996H115.921L111.574 80.6574V86.0996H110.033V77.9226H111.282L115.629 83.4232Z" fill="white"/>
<path d="M125.04 79.9222C124.491 79.397 123.674 79.1052 122.958 79.1052C121.206 79.1052 120.14 80.4357 120.14 82.1201C120.14 83.4622 120.922 84.8548 122.958 84.8548C123.6 84.8548 124.16 84.7148 124.802 84.2013V82.7542H122.709V81.3771H126.215V84.8237C125.409 85.7457 124.394 86.2942 122.954 86.2942C119.879 86.2942 118.63 84.2713 118.63 82.124C118.63 79.821 120.066 77.697 122.954 77.697C124.051 77.697 125.153 78.1172 125.993 78.9457L125.036 79.9261L125.04 79.9222Z" fill="white"/>
<path d="M133.925 86.0996H127.799V77.9226H133.925V79.4164H129.332V81.2953H133.761V82.7308H129.332V84.5786H133.925V86.0957V86.0996Z" fill="white"/>
<path d="M154.975 82.8398C154.843 85.5473 154.372 88.2898 153.485 90.9195C153.045 92.2344 152.496 93.5181 151.862 94.7474C151.702 95.0547 151.535 95.3581 151.364 95.6616L150.815 96.5407L150.263 97.416C150.169 97.5599 150.08 97.7078 149.982 97.8478L149.667 98.2601C149.247 98.8048 148.826 99.3533 148.398 99.8862L146.997 101.38L146.643 101.75L146.266 102.088L145.511 102.761L144.752 103.43L143.95 104.033L143.148 104.628C142.88 104.827 142.615 105.029 142.331 105.192L140.654 106.231C140.093 106.566 139.506 106.842 138.933 107.149L138.07 107.593L137.186 107.974C134.847 109.044 132.43 109.763 130.025 110.386C128.815 110.65 127.608 110.95 126.398 111.121C125.791 111.218 125.188 111.331 124.584 111.413L122.771 111.623C117.933 112.148 113.131 112.086 108.402 111.673C98.9452 110.833 89.7878 108.612 80.9884 105.574C72.1891 102.524 63.7711 98.5752 55.7423 94.0238L56.6452 92.3005C64.888 96.1984 73.415 99.4427 82.156 101.765C90.8892 104.076 99.8364 105.535 108.702 105.659C113.127 105.717 117.536 105.437 121.778 104.652L123.362 104.352C123.888 104.243 124.401 104.103 124.923 103.979C125.97 103.753 126.97 103.415 127.982 103.119C129.963 102.442 131.917 101.703 133.683 100.719L134.357 100.369L134.995 99.9718C135.415 99.7034 135.855 99.4622 136.256 99.1782L137.443 98.3107C137.649 98.1746 137.824 98.0112 138.003 97.8517L138.548 97.3771L139.093 96.9064L139.583 96.3929L140.078 95.8872L140.327 95.6343L140.545 95.362L141.42 94.2806L142.175 93.1291C144.145 90.0287 144.989 86.4187 144.876 82.6764L154.979 82.8398H154.975Z" fill="#FFC50B"/>
<path d="M138.817 88.2081L146.308 66.9292L161 84.0534L138.817 88.2081Z" fill="#FFC50B"/>
<path d="M6.16461 9.51521C8.24283 7.65963 10.5507 6.15416 12.9402 4.94045C15.3337 3.73063 17.8089 2.78533 20.3113 2.08122C22.8176 1.38879 25.3434 0.890852 27.8692 0.548523C28.4997 0.470721 29.134 0.408479 29.7645 0.338457L30.7102 0.241204L31.6559 0.178963C32.2864 0.140062 32.9169 0.0894904 33.5473 0.0622597L35.431 0.0116883C45.4835 -0.132246 55.2986 1.55995 64.7285 4.23245C74.1622 6.92051 83.2379 10.6278 91.8777 15.1053C100.517 19.575 108.733 24.8267 116.342 30.833L115.174 32.389C107.383 26.8495 99.0542 22.1075 90.391 18.159C81.7317 14.2106 72.7222 11.0557 63.522 8.9317C54.3373 6.81548 44.8997 5.71069 35.6995 6.30977L33.9793 6.44203C33.4072 6.4926 32.8429 6.5704 32.2747 6.63265L31.4224 6.7299L30.5779 6.86216C30.0175 6.95552 29.4532 7.03333 28.8966 7.13447C26.6705 7.55071 24.4911 8.10311 22.3895 8.79554C18.2136 10.2193 14.3646 12.32 11.473 15.1753L6.1685 9.51521H6.16461Z" fill="#FFC50B"/>
<path d="M23.3547 15.3232L1.52559 29.6777L0 3.6062L23.3547 15.3232Z" fill="#FFC50B"/>
</g>
<defs>
<clipPath id="clip0_10_161">
<rect width="161" height="112" fill="white"/>
</clipPath>
</defs>
</svg>
