<?xml version="1.0" encoding="UTF-8"?>
<svg id="Calque_2" data-name="Calque 2" xmlns="http://www.w3.org/2000/svg" viewBox="0 0 363.31 243.28">
  <defs>
    <style>
      .cls-1, .cls-2 {
        fill: #fff;
      }

      .cls-3 {
        fill: #fdc600;
      }

      .cls-4 {
        letter-spacing: .11em;
      }

      .cls-5 {
        letter-spacing: .08em;
      }

      .cls-6 {
        letter-spacing: .11em;
      }

      .cls-2 {
        font-family: Montserrat-Medium, 'Montserrat Medium';
        font-size: 25.49px;
        font-weight: 500;
      }

      .cls-7 {
        letter-spacing: .11em;
      }
    </style>
  </defs>
  <g id="Layer_1" data-name="Layer 1">
    <g>
      <g>
        <path class="cls-1" d="m0,152.89c-.03,4.66,5.38,7.85,11.27,7.85h74.51c5.88,0,10.25-3.19,10.29-7.13v-29.04h-26.02c-2.93,0-5.33,1.6-5.35,3.56l-.14,17.72h-31.68l.34-42.93h58.35c2.93,0,4.5-1.6,4.51-3.57v-10.98c-36.25,0-62.24,0-96.07,0"/>
        <path class="cls-1" d="m105.1,160.74h20.79c2.93,0,5.32-1.6,5.34-3.58l.19-23.83,18.32,27.39h34.24l18.74-26.85-.21,26.85h20.58c2.93,0,5.42-1.7,5.43-3.67l.02-62.84v-5.84h-18.67s0,0,0,0c-4.14,0-7.92,1.61-9.68,4.14l-33.04,47.3-34.38-51.44h-27.67"/>
        <path class="cls-1" d="m237.57,88.38v14.17h31.98l-.46,58.18h26.82c2.93,0,5.32-1.6,5.34-3.58l.44-54.61h31.67v-14.17h-95.78Z"/>
      </g>
      <text class="cls-2" transform="translate(9.18 195.78)"><tspan class="cls-7" x="0" y="0">MON</tspan><tspan class="cls-4" x="63.25" y="0">E</tspan><tspan class="cls-6" x="78.67" y="0">Y E</tspan><tspan class="cls-5" x="118.82" y="0">X</tspan><tspan class="cls-7" x="135.44" y="0">CHANGE</tspan></text>
      <g>
        <path class="cls-3" d="m183.49,24.25c5.48,1.52,10.94,3.12,16.34,4.96,5.42,1.76,10.76,3.78,16.08,5.89,10.62,4.23,20.98,9.15,31.05,14.66,10.05,5.55,19.78,11.73,29.05,18.61-8.66-7.62-17.91-14.63-27.56-21.07-9.68-6.39-19.75-12.25-30.18-17.44-5.22-2.59-10.49-5.1-15.87-7.36-5.35-2.33-10.81-4.44-16.31-6.47-11.01-3.99-22.3-7.29-33.8-9.92C129.3.95,105.37-1.42,81.23.88c-3.02.24-6.03.7-9.05,1.1l-4.52.75c-1.51.24-3.01.6-4.51.89-6.01,1.29-12.01,2.86-17.91,5-10.24,3.69-20.33,8.75-29.4,15.8L3.41,16.38.77,68.44l46.41-23.74-11.47-7.42c5.13-3.87,10.88-7.21,16.99-10,4.79-2.21,9.84-3.99,15-5.56,1.3-.37,2.58-.8,3.9-1.11l3.95-1c2.66-.58,5.32-1.21,8.02-1.66,10.78-2,21.89-2.83,33.06-2.91,11.17.02,22.42.76,33.59,2.37,11.18,1.59,22.31,3.85,33.28,6.83Z"/>
        <path class="cls-3" d="m363.31,168.7l-33.05-40.31-18.39,48.78,13.48-2.22c-1.07,5.38-2.96,10.61-5.67,15.51-4.42,8.03-11.02,15.11-18.97,20.84-7.96,5.73-17.13,10.21-26.85,13.51-9.71,3.34-19.96,5.53-30.37,6.88-20.86,2.65-42.38,1.83-63.54-1.47-21.19-3.31-42.08-9.18-62.23-17.16,19.36,9.72,39.83,17.52,61.08,22.8,21.24,5.26,43.3,8.13,65.62,7.29,11.15-.45,22.37-1.8,33.45-4.54,11.07-2.71,22.02-6.81,32.25-12.86,10.19-6.04,19.63-14.26,26.64-24.66,3.5-5.18,6.39-10.84,8.51-16.8,1.52-4.27,2.65-8.7,3.39-13.18l14.64-2.41Z"/>
      </g>
    </g>
  </g>
</svg>